Coordinates
version=1
nRows=11
nColumns=40
inDegrees=yes

Units are S.I. units (second, meters, Newtons, ...)
Angles are in degrees.

endheader
time	pelvis_tilt	pelvis_list	pelvis_rotation	pelvis_tx	pelvis_ty	pelvis_tz	hip_flexion_r	hip_adduction_r	hip_rotation_r	knee_angle_r	knee_angle_r_beta	ankle_angle_r	subtalar_angle_r	mtp_angle_r	hip_flexion_l	hip_adduction_l	hip_rotation_l	knee_angle_l	knee_angle_l_beta	ankle_angle_l	subtalar_angle_l	mtp_angle_l	lumbar_extension	lumbar_bending	lumbar_rotation	arm_flex_r	arm_add_r	arm_rot_r	elbow_flex_r	pro_sup_r	wrist_flex_r	wrist_dev_r	arm_flex_l	arm_add_l	arm_rot_l	elbow_flex_l	pro_sup_l	wrist_flex_l	wrist_dev_l
     39.56000000	     -4.35336339	     -3.32284692	      0.17916357	      0.94057124	      0.93473314	      0.43314047	     33.64360841	     -6.79519005	     -5.80252380	     72.64102800	     72.64102800	     -4.13908317	    -16.43702714	      1.12316700	     12.13262980	     -2.48750538	     -8.39240909	     19.35427272	     19.35427272	     14.63062811	     -5.58825908	      1.67655633	    -10.04031238	      5.35518199	      2.30097272	      3.19239969	    -12.48846245	     -6.25258228	     30.04196181	     44.93542841	      0.00000000	      0.00000000	     15.02994798	    -14.29612537	     -0.43580886	     56.73029044	     45.35587905	      0.00000000	      0.00000000
     39.57242857	     -4.37335630	     -3.29838138	      0.09898159	      0.93967868	      0.93547216	      0.43279839	     34.88248424	     -6.66458830	     -5.98018777	     71.24313367	     71.24313367	     -3.57449806	    -16.04588291	      0.71022977	     11.27090785	     -2.44778851	     -8.68604415	     18.65283297	     18.65283297	     14.78268322	     -4.96045882	      1.65519230	    -10.14613969	      5.34070355	      2.40493297	      1.52585894	    -12.49356356	     -6.09219982	     28.99637081	     44.97400098	      0.00000000	      0.00000000	     16.35928519	    -14.39902782	     -0.67498191	     57.93292235	     45.42105287	      0.00000000	      0.00000000
     39.58485714	     -4.35200623	     -3.31330950	      0.01346044	      0.93880416	      0.93614852	      0.43254686	     35.92073845	     -6.45576301	     -6.17220228	     69.58117006	     69.58117006	     -3.09857483	    -15.75850663	      0.30707263	     10.40803822	     -2.47723456	     -9.06647601	     18.02969994	     18.02969994	     14.92539561	     -4.23513595	      1.51163827	    -10.31542915	      5.36454470	      2.47994451	     -0.09723933	    -12.46932830	     -5.91747034	     28.04919660	     45.00928230	      0.00000000	      0.00000000	     17.59097575	    -14.55460495	     -0.91470858	     59.44480875	     45.49182516	      0.00000000	      0.00000000
     39.59728571	     -4.43059459	     -3.36090135	     -0.00956446	      0.93789326	      0.93655685	      0.43232845	     36.91311326	     -6.24034784	     -6.44799663	     67.65807356	     67.65807356	     -2.62724303	    -15.51751776	      0.20406670	      9.74532374	     -2.52122773	     -9.24701958	     17.53724649	     17.53724649	     15.06576672	     -3.76097410	      1.41380548	    -10.33826635	      5.42990706	      2.18376115	     -1.56841420	    -12.35729237	     -5.81701093	     27.38632397	     45.02818374	      0.00000000	      0.00000000	     18.71604062	    -14.93648521	     -1.17095069	     60.50527185	     45.54509940	      0.00000000	      0.00000000
     39.60971429	     -4.35733608	     -3.38963207	     -0.12956277	      0.93721272	      0.93710228	      0.43225489	     37.56196625	     -5.97119415	     -6.62589194	     65.38097005	     65.38097005	     -2.21875756	    -15.32665374	      0.12984816	      8.78681234	     -2.55501764	     -9.67688269	     16.83810794	     16.83810794	     15.21620711	     -3.03536109	      1.22687001	    -10.56183156	      5.44369774	      2.39691489	     -3.17081314	    -12.35940482	     -5.64073947	     26.59329394	     45.05291752	      0.00000000	      0.00000000	     19.80314130	    -14.94488052	     -1.42178018	     62.29251978	     45.61480373	      0.00000000	      0.00000000
     39.62214286	     -4.34603937	     -3.41596714	     -0.24625750	      0.93652929	      0.93724406	      0.43232433	     38.12964612	     -5.70261975	     -6.81042063	     62.79681457	     62.79681457	     -1.94644252	    -15.26179112	     -0.29153577	      8.04142862	     -2.64428671	    -10.22747455	     16.40749865	     16.40749865	     15.32465319	     -2.17546864	      0.51097356	    -10.72180638	      5.44986967	      2.12502742	     -4.49543951	    -12.34499982	     -5.13843259	     26.22750682	     45.08749144	      0.00000000	      0.00000000	     20.15295606	    -15.51741400	     -1.89379121	     65.15759035	     45.77127668	      0.00000000	      0.00000000
     39.63457143	     -4.35936704	     -3.44657092	     -0.33305424	      0.93589822	      0.93729299	      0.43246075	     38.54077160	     -5.41857610	     -7.00441732	     59.85025794	     59.85025794	     -1.52927014	    -15.11871737	     -0.18048758	      7.26908580	     -2.64099602	    -10.37047859	     15.84200545	     15.84200545	     15.44968636	     -1.90923760	      0.43970384	    -10.81298211	      5.47870538	      2.06533554	     -5.87486894	    -12.30729818	     -4.94735551	     25.74147185	     45.10117803	      0.00000000	      0.00000000	     21.12364405	    -15.61262527	     -2.22536415	     66.35841883	     45.84317726	      0.00000000	      0.00000000
     39.64700000	     -4.52951128	     -3.48557315	     -0.40224335	      0.93522178	      0.93687424	      0.43274958	     38.95096157	     -5.16085100	     -7.28534616	     56.55218854	     56.55218854	     -1.12378546	    -14.82156426	      0.03951612	      6.76740534	     -2.66290418	    -10.43968315	     15.45659646	     15.45659646	     15.68043353	     -1.76155852	      0.33806464	    -10.67289246	      5.50213453	      1.80583256	     -7.10831558	    -12.22121333	     -4.88511835	     25.38032968	     45.10767841	      0.00000000	      0.00000000	     22.00066989	    -15.96903541	     -2.50279037	     67.17149220	     45.88999904	      0.00000000	      0.00000000
     39.65942857	     -4.46721787	     -3.54252303	     -0.54149260	      0.93489996	      0.93660164	      0.43322296	     38.82296364	     -4.78584070	     -7.49414478	     52.73754189	     52.73754189	     -1.06623598	    -14.63111541	     -0.82998027	      5.86143060	     -2.70958535	    -10.71816719	     14.83665233	     14.83665233	     15.71577685	     -1.41175524	     -0.34644843	    -10.90735586	      5.51413491	      1.74790814	     -8.68416623	    -12.38167227	     -4.40430182	     26.20325408	     45.10026148	      0.00000000	      0.00000000	     22.10316824	    -16.03403024	     -3.22104703	     70.07746599	     46.08218803	      0.00000000	      0.00000000
     39.67185714	     -4.59404084	     -3.65083450	     -0.62695286	      0.93453968	      0.93586311	      0.43381080	     38.72439493	     -4.38491182	     -7.82940113	     48.65531791	     48.65531791	     -0.65284297	    -13.97074361	     -0.56706121	      5.27832430	     -2.80069596	    -10.74070933	     14.43467135	     14.43467135	     15.99445471	     -1.35863645	     -0.45970577	    -10.78045508	      5.61806665	      1.61801488	     -9.80225022	    -12.38638987	     -4.33710100	     25.90511204	     45.10767863	      0.00000000	      0.00000000	     22.80282645	    -16.18261014	     -3.42675088	     70.83892337	     46.12486024	      0.00000000	      0.00000000
     39.68428571	     -4.58637257	     -3.71664776	     -0.74077697	      0.93440520	      0.93510875	      0.43459622	     38.25264518	     -3.96990231	     -8.14112013	     44.24770748	     44.24770748	     -0.33188989	    -12.99378385	     -0.41473918	      4.49074751	     -2.84904173	    -10.83449569	     13.96094593	     13.96094593	     16.26603918	     -1.27107016	     -0.65629894	    -10.85089852	      5.64113082	      1.68996840	    -10.97300934	    -12.44502394	     -4.30878736	     25.80604686	     45.11337420	      0.00000000	      0.00000000	     23.34268906	    -16.16608873	     -3.65969425	     72.05430943	     46.18106150	      0.00000000	      0.00000000
